<svg xmlns="http://www.w3.org/2000/svg" xmlns:xlink="http://www.w3.org/1999/xlink" width="141.278" height="141.278" viewBox="0 0 141.278 141.278"><defs><style>.a{stroke:#008b83;fill:url(#a);}</style><linearGradient id="a" y1="0.5" x2="1.465" y2="0.5" gradientUnits="objectBoundingBox"><stop offset="0" stop-color="#0090bf"/><stop offset="1" stop-color="green"/></linearGradient></defs><g transform="translate(0.5 0.5)"><path class="a" d="M105.662,34.745a80.564,80.564,0,0,0-4.019-9.724C93.865,9.2,82.326,0,70.139,0c-22.688,0-41.1,31.5-41.1,70.139a111.391,111.391,0,0,0,4.149,30.726C15.558,94.254,4.019,82.974,4.019,70.139c0-11.279,9.075-21.781,25.022-28.911a1.975,1.975,0,0,0-1.556-3.63C9.983,45.377,0,57.174,0,70.139,0,85.178,14,98.4,34.745,105.533a83.1,83.1,0,0,0,6.093,13.743c7.779,13.483,18.151,21,29.3,21h0c12.965,0,24.892-9.983,32.671-27.615a1.975,1.975,0,0,0-3.63-1.556c-7.131,15.947-17.762,25.152-29.041,25.152h0c-9.724,0-18.928-6.742-25.929-18.928a74.594,74.594,0,0,1-4.8-10.242,115.049,115.049,0,0,0,30.726,4.149c38.635,0,70.139-18.41,70.139-41.1C140.278,55.1,126.276,41.876,105.662,34.745ZM70.139,107.218a109.644,109.644,0,0,1-32.282-4.667,107.309,107.309,0,0,1-4.8-32.282c0-36.431,16.595-66.12,37.079-66.12,10.631,0,20.873,8.3,27.874,22.818,1.037,2.074,1.815,4.149,2.723,6.353a114.072,114.072,0,0,0-30.6-4.149,119.341,119.341,0,0,0-27.615,3.241A2.013,2.013,0,0,0,43.561,36.3,111.656,111.656,0,0,1,70.269,33.19a109.644,109.644,0,0,1,32.282,4.667,84.92,84.92,0,0,1,2.334,8.686,109.091,109.091,0,0,1,2.463,23.725,110.276,110.276,0,0,1-3.112,26.448,2.013,2.013,0,0,0,3.889,1.037A117.948,117.948,0,0,0,111.367,70.4a116.328,116.328,0,0,0-2.593-24.5l-1.556-6.223c17.5,6.353,29.041,17.632,29.041,30.467C136.259,90.623,106.57,107.218,70.139,107.218Z"/><path class="a" d="M132.231,205.3h0c2.723-1.037,4.019-2.852,4.019-5.056,0-2.982-2.593-5.445-7.26-5.445a12.8,12.8,0,0,0-6.742,1.685l1.037,3.63a9.935,9.935,0,0,1,4.538-1.3c2.074,0,3.241.908,3.241,2.2,0,1.815-2.2,2.463-3.889,2.463H125.23v3.63H127.3c2.2,0,4.408.908,4.408,3.112,0,1.685-1.3,2.852-4.019,2.852a13.456,13.456,0,0,1-5.056-1.3l-1.037,3.76a13.156,13.156,0,0,0,6.482,1.556c5.445,0,8.816-2.852,8.816-6.612C137.028,207.765,134.824,205.82,132.231,205.3Z" transform="translate(-82.187 -131.662)"/><path class="a" d="M187.983,202.32A6.059,6.059,0,0,0,183.445,204h-.13c.519-2.593,2.593-4.8,7.131-5.186a11.2,11.2,0,0,1,1.945-.13V194.8h-2.074a13.241,13.241,0,0,0-8.427,3.241A13.052,13.052,0,0,0,178,207.635c0,5.186,2.852,9.464,8.557,9.464a7.781,7.781,0,0,0,8.038-7.779C194.595,204.912,191.613,202.32,187.983,202.32Zm-1.426,11.15c-2.334,0-3.371-2.074-3.5-4.408a2.789,2.789,0,0,1,.259-1.3,3.507,3.507,0,0,1,2.982-1.945c2.2,0,3.241,1.685,3.241,3.76C189.539,211.913,188.372,213.469,186.557,213.469Z" transform="translate(-120.307 -131.662)"/><path class="a" d="M243.5,194.8c-5.575,0-8.3,4.927-8.3,11.279,0,6.093,2.463,11.15,8.038,11.15s8.3-4.538,8.3-11.279C251.536,199.986,249.332,194.8,243.5,194.8Zm0,18.54c-1.945,0-3.112-2.334-3.112-7.39s1.3-7.39,3.112-7.39c2.074,0,3.112,2.593,3.112,7.39Q246.414,213.34,243.5,213.34Z" transform="translate(-158.967 -131.662)"/><path class="a" d="M282.59,154a7.39,7.39,0,1,0,7.39,7.39A7.305,7.305,0,0,0,282.59,154Zm0,10.631a3.371,3.371,0,1,1,3.371-3.371A3.27,3.27,0,0,1,282.59,164.631Z" transform="translate(-186.003 -104.086)"/></g></svg>