<svg xmlns="http://www.w3.org/2000/svg" width="73.27" height="73.27" viewBox="0 0 73.27 73.27"><defs><style>.a{fill:#fff;stroke:#fff;stroke-width:0.5px;}</style></defs><g transform="translate(0.25 0.25)"><path class="a" d="M54.813,18.024a41.791,41.791,0,0,0-2.085-5.044C48.693,4.775,42.707,0,36.385,0c-11.77,0-21.32,16.343-21.32,36.385a57.785,57.785,0,0,0,2.152,15.939C8.071,48.894,2.085,43.043,2.085,36.385c0-5.851,4.708-11.3,12.98-15a1.024,1.024,0,0,0-.807-1.883C5.179,23.539,0,29.659,0,36.385c0,7.8,7.264,14.662,18.024,18.361a43.108,43.108,0,0,0,3.161,7.129c4.035,6.995,9.416,10.9,15.2,10.9h0c6.726,0,12.913-5.179,16.948-14.325a1.024,1.024,0,1,0-1.883-.807c-3.7,8.272-9.214,13.047-15.065,13.047h0c-5.044,0-9.819-3.5-13.451-9.819a38.7,38.7,0,0,1-2.488-5.313A59.682,59.682,0,0,0,36.385,57.7c20.042,0,36.385-9.55,36.385-21.32C72.77,28.583,65.506,21.723,54.813,18.024ZM36.385,55.62A56.878,56.878,0,0,1,19.638,53.2,55.667,55.667,0,0,1,17.15,36.452c0-18.9,8.609-34.3,19.235-34.3,5.515,0,10.828,4.3,14.46,11.837.538,1.076.942,2.152,1.412,3.3a59.175,59.175,0,0,0-15.872-2.152A61.909,61.909,0,0,0,22.06,16.814a1.044,1.044,0,0,0,.538,2.018,57.922,57.922,0,0,1,13.855-1.614A56.879,56.879,0,0,1,53.2,19.638a44.051,44.051,0,0,1,1.211,4.506,56.591,56.591,0,0,1,1.278,12.308,57.206,57.206,0,0,1-1.614,13.72,1.044,1.044,0,0,0,2.018.538,61.186,61.186,0,0,0,1.681-14.191,60.346,60.346,0,0,0-1.345-12.711L55.62,20.58c9.079,3.3,15.065,9.147,15.065,15.8C70.685,47.011,55.284,55.62,36.385,55.62Z"/><path class="a" d="M127.115,200.248h0a2.786,2.786,0,0,0,2.085-2.623c0-1.547-1.345-2.825-3.766-2.825a6.638,6.638,0,0,0-3.5.874l.538,1.883a5.154,5.154,0,0,1,2.354-.673c1.076,0,1.681.471,1.681,1.143,0,.942-1.143,1.278-2.018,1.278h-1.009v1.883h1.076c1.143,0,2.287.471,2.287,1.614,0,.874-.673,1.48-2.085,1.48a6.98,6.98,0,0,1-2.623-.673l-.538,1.95a6.825,6.825,0,0,0,3.363.807c2.825,0,4.573-1.48,4.573-3.43A2.746,2.746,0,0,0,127.115,200.248Z" transform="translate(-101.154 -162.047)"/><path class="a" d="M183.179,198.7a3.143,3.143,0,0,0-2.354.874h-.067c.269-1.345,1.345-2.488,3.7-2.69a5.81,5.81,0,0,1,1.009-.067V194.8h-1.076a6.869,6.869,0,0,0-4.372,1.681A6.771,6.771,0,0,0,178,201.458c0,2.69,1.48,4.91,4.439,4.91a4.037,4.037,0,0,0,4.17-4.035A3.375,3.375,0,0,0,183.179,198.7Zm-.74,5.784c-1.211,0-1.749-1.076-1.816-2.287a1.447,1.447,0,0,1,.134-.673,1.819,1.819,0,0,1,1.547-1.009c1.143,0,1.681.874,1.681,1.95C183.986,203.678,183.38,204.485,182.439,204.485Z" transform="translate(-148.072 -162.047)"/><path class="a" d="M239.5,194.8c-2.892,0-4.3,2.556-4.3,5.851,0,3.161,1.278,5.784,4.17,5.784s4.3-2.354,4.3-5.851C243.674,197.49,242.531,194.8,239.5,194.8Zm0,9.617c-1.009,0-1.614-1.211-1.614-3.834s.673-3.834,1.614-3.834c1.076,0,1.614,1.345,1.614,3.834Q241.018,204.417,239.5,204.417Z" transform="translate(-195.654 -162.047)"/><path class="a" d="M279.034,154a3.834,3.834,0,1,0,3.834,3.834A3.79,3.79,0,0,0,279.034,154Zm0,5.515a1.749,1.749,0,1,1,1.749-1.749A1.7,1.7,0,0,1,279.034,159.515Z" transform="translate(-228.929 -128.107)"/></g></svg>