<svg xmlns="http://www.w3.org/2000/svg" xmlns:xlink="http://www.w3.org/1999/xlink" width="96.182" height="96.15" viewBox="0 0 96.182 96.15"><defs><style>.a{fill:url(#a);}</style><linearGradient id="a" x1="-0.455" y1="0.614" x2="3.494" y2="0.63" gradientUnits="objectBoundingBox"><stop offset="0" stop-color="#0090bf"/><stop offset="1" stop-color="green"/></linearGradient></defs><g transform="translate(0 -0.08)"><g transform="translate(6.446 6.495)"><path class="a" d="M65.833,32.106A33.651,33.651,0,1,0,99.484,65.757,33.651,33.651,0,0,0,65.833,32.106Zm0,3.2A30.414,30.414,0,0,1,90.7,48.242L86.69,52.248a6.324,6.324,0,0,0-3.23-.913,6.41,6.41,0,0,0-6.41,6.41,6.324,6.324,0,0,0,.909,3.235L67.466,71.473a6.214,6.214,0,0,0-6.471,0l-7.288-7.288a6.324,6.324,0,0,0,.909-3.235,6.4,6.4,0,0,0-12.592-1.6H36.079A30.489,30.489,0,0,1,65.833,35.311ZM86.664,57.745a3.2,3.2,0,1,1-3.2-3.2A3.2,3.2,0,0,1,86.664,57.745ZM67.435,76.974a3.2,3.2,0,1,1-3.2-3.2A3.2,3.2,0,0,1,67.435,76.974ZM51.411,60.95a3.2,3.2,0,1,1-3.2-3.2A3.2,3.2,0,0,1,51.411,60.95ZM80.626,92.378A30.44,30.44,0,0,1,35.558,62.552h6.466a6.41,6.41,0,0,0,6.182,4.807,6.324,6.324,0,0,0,3.235-.909l7.288,7.288a6.324,6.324,0,0,0-.909,3.235,6.41,6.41,0,1,0,12.819,0,6.324,6.324,0,0,0-.909-3.235L80.224,63.246a6.324,6.324,0,0,0,3.235.909,6.41,6.41,0,0,0,6.41-6.41,6.324,6.324,0,0,0-.909-3.235l3.493-3.492A30.419,30.419,0,0,1,80.626,92.378Z" transform="translate(-32.182 -32.106)"/></g><g transform="translate(0 0.08)"><path class="a" d="M80.158,16.11A6.41,6.41,0,0,0,86.34,11.3h9.842V8.1H86.34A6.4,6.4,0,0,0,73.748,9.7a6.324,6.324,0,0,0,.909,3.235l-2.815,2.815a40.061,40.061,0,1,0-10,58.017L66.675,78.6l2.266,2.266,12.9,12.9a8.4,8.4,0,0,0,11.88-11.88l-12.9-12.9-2.266-2.266-4.836-4.836a39.928,39.928,0,0,0,0-43.483l3.2-3.2A6.326,6.326,0,0,0,80.158,16.11Zm0-9.615a3.2,3.2,0,1,1-3.2,3.2A3.2,3.2,0,0,1,80.158,6.5Zm11.3,77.66a5.2,5.2,0,1,1-7.265,7.432l-.084-.084-12.9-12.9,7.349-7.349ZM76.29,68.99l-7.349,7.349L64.505,71.9c.226-.173.437-.364.66-.542s.481-.391.719-.591c.351-.295.7-.593,1.037-.9.175-.16.341-.32.513-.481q.985-.923,1.908-1.908c.16-.171.32-.338.481-.513.306-.34.6-.686.9-1.037q.3-.356.591-.719c.176-.221.367-.433.54-.659Zm-6.214-7.443c-.5.705-1.026,1.4-1.575,2.061-.16.194-.332.381-.5.572q-.736.856-1.519,1.66-.341.352-.694.694-.8.784-1.66,1.519c-.191.16-.378.335-.572.5-.665.55-1.356,1.07-2.061,1.575a36.913,36.913,0,1,1,8.578-8.578Z" transform="translate(0 -0.08)"/></g></g></svg>