<svg xmlns="http://www.w3.org/2000/svg" width="30.999" height="41.225" viewBox="0 0 30.999 41.225"><defs><style>.a{fill:#fff;}</style></defs><path class="a" d="M26.668,3.221H20.6a4.832,4.832,0,0,0-9.11,0H5.331A4.836,4.836,0,0,0,.5,8.052V36.394a4.836,4.836,0,0,0,4.831,4.831H26.673A4.838,4.838,0,0,0,31.5,36.394V8.052a4.836,4.836,0,0,0-4.831-4.831ZM14.43,6.441V4.831a1.61,1.61,0,1,1,3.221,0v1.61h3.221v3.14H11.209V6.441ZM28.279,36.394A1.612,1.612,0,0,1,26.672,38H5.331a1.612,1.612,0,0,1-1.61-1.61V8.052a1.612,1.612,0,0,1,1.61-1.61H7.988V12.8h16.1V6.441h2.577a1.612,1.612,0,0,1,1.61,1.61Zm-6.1-17.872,2.382,2.168L14.244,32.023,7.432,25.434l2.239-2.315L14.1,27.4Zm0,0" transform="translate(-0.5)"/></svg>