<svg xmlns="http://www.w3.org/2000/svg" width="56.224" height="74.771" viewBox="0 0 56.224 74.771"><defs><style>.a{fill:#fff;}</style></defs><path class="a" d="M47.962,5.841H36.947a8.763,8.763,0,0,0-16.524,0H9.262A8.772,8.772,0,0,0,.5,14.6v51.4a8.772,8.772,0,0,0,8.762,8.762H47.971a8.774,8.774,0,0,0,8.753-8.762V14.6a8.772,8.772,0,0,0-8.762-8.762Zm-22.2,5.841V8.762a2.921,2.921,0,1,1,5.841,0v2.921h5.841v5.7H19.923v-5.7ZM50.883,66.008a2.924,2.924,0,0,1-2.914,2.921H9.262a2.924,2.924,0,0,1-2.921-2.921V14.6a2.924,2.924,0,0,1,2.921-2.921h4.819V23.22H43.289V11.683h4.673A2.924,2.924,0,0,1,50.883,14.6ZM39.814,33.594l4.32,3.932L25.428,58.08,13.073,46.129l4.062-4.2,8.027,7.764Zm0,0" transform="translate(-0.5)"/></svg>