<svg xmlns="http://www.w3.org/2000/svg" xmlns:xlink="http://www.w3.org/1999/xlink" width="103.09" height="81.958" viewBox="0 0 103.09 81.958"><defs><style>.a{fill:url(#a);}</style><linearGradient id="a" x1="-1.248" y1="0.5" x2="4.796" y2="1.698" gradientUnits="objectBoundingBox"><stop offset="0" stop-color="#0090bf"/><stop offset="1" stop-color="green"/></linearGradient></defs><g transform="translate(0 -52.478)"><g transform="translate(71.519 64.334)"><g transform="translate(0 0)"><path class="a" d="M385.715,137.832l-23.84-25.257a3.866,3.866,0,1,0-5.622,5.307l21.336,22.6-21.336,22.605a3.866,3.866,0,0,0,5.622,5.309l23.84-25.258A3.867,3.867,0,0,0,385.715,137.832Z" transform="translate(-355.199 -111.361)"/></g></g><g transform="translate(0.001 64.333)"><g transform="translate(0)"><path class="a" d="M30.518,163.087l-21.335-22.6,21.335-22.6a3.866,3.866,0,1,0-5.623-5.307L1.055,137.829a3.867,3.867,0,0,0,0,5.308L24.9,168.4a3.866,3.866,0,0,0,5.622-5.309Z" transform="translate(-0.001 -111.36)"/></g></g><g transform="translate(42.009 52.478)"><g transform="translate(0 0)"><path class="a" d="M224.427,52.522a3.87,3.87,0,0,0-4.406,3.238l-11.34,74.225a3.867,3.867,0,0,0,3.238,4.406,3.982,3.982,0,0,0,.589.044,3.867,3.867,0,0,0,3.817-3.282l11.34-74.225A3.867,3.867,0,0,0,224.427,52.522Z" transform="translate(-208.637 -52.478)"/></g></g></g></svg>