<svg xmlns="http://www.w3.org/2000/svg" width="640.075" height="428.381" viewBox="0 0 640.075 428.381"><defs><style>.a,.c{fill:green;}.a,.i{opacity:0.1;}.b{fill:#f2f2f2;}.d,.j{fill:#3f3d56;}.e{fill:#123147;}.f{fill:#9f616a;}.g{fill:#d0cde1;}.h{fill:#2f2e41;}.j{stroke:#3f3d56;stroke-width:4px;}.k{fill:none;stroke:green;stroke-miterlimit:10;stroke-width:2px;}</style></defs><g transform="translate(-140 -3330)"><path class="a" d="M666.146,466.759c-14.169,11.754-34.331,16.619-53.83,19.691l-3.282.5a616.244,616.244,0,0,1-61.621,5.638c-11.056.535-22.112.914-33.167,1.251l-8.664.256q-16.875.5-33.813.983-16.584.471-33.167.884-21.239.518-42.477.861-16.584.262-33.167.361-21.245.122-42.477-.082-16.6-.169-33.167-.582-21.25-.547-42.477-1.6-14.407-.7-28.8-1.693l-4.37-.308c-41.18-2.968-83.1-8.292-119.135-25.12l-.972-.46c-.483-.227-.966-.454-1.449-.692a130.407,130.407,0,0,1-18.946-11.108c-10.654-7.6-19.452-16.875-24.1-27.878C39.778,410.4,43.63,391,51.951,374.129s20.814-32.108,31.62-48c3.165-4.655,6.168-9.485,8.961-14.436,17.456-31.055,26.115-66.992,7.815-96.918a133.007,133.007,0,0,0-7.815-11.056c-4.463-5.819-9-11.638-12.068-18.079-7.151-14.989-5.615-31.846-3.008-47.86,3.491-21.291,9.892-44.223,29.9-57.525,20.756-13.814,50.217-13.116,75.976-8.146,40.051,7.675,77.018,23.741,114.334,38.23S374.07,138.077,415.1,139.5a187.413,187.413,0,0,0,26.406-.96h0a167.471,167.471,0,0,0,34.4-7.244c16.147-5.318,30.84-13.319,41.733-24.439C541,83.089,584.9,81.291,616.558,95.646c30.205,13.7,49.739,42.687,48.3,71.641-1.641,32.23-25.777,58.729-47.895,85.909-2.683,3.293-5.33,6.6-7.908,9.927q-2.159,2.787-4.236,5.586h0c-2.427,3.293-4.771,6.6-6.983,9.956-11.3,17.183-19.289,37.822-11.51,56.373,4.364,10.387,12.691,18.312,22.728,25.23,22.49,15.5,53.533,25.923,67.5,47.616C688.583,426.58,684.126,451.816,666.146,466.759Z" transform="translate(96.787 3261.15)"/><g transform="translate(230.176 3356.334)"><path class="b" d="M779.783,403.263c0,58.144,34.566,78.445,77.2,78.445s77.2-20.3,77.2-78.445-77.2-132.112-77.2-132.112S779.783,345.119,779.783,403.263Z" transform="translate(-779.783 -168.167)"/><path class="c" d="M811.091,419.814l-.79-48.661-32.907-60.2,32.782,52.567-.355-21.88-22.679-43.555,22.585,37.764h0l-.639-39.352L784.8,261.823l24.185,28.487-.4-72.158,2.511,95.525-.206-3.941,24.691-37.793-24.3,45.358,2.3,43.95.068-1.167,28.464-39.772L813.743,364.2l.287,5.5.052.082-.023.451,5.837,111.5h-7.8l-.935-57.594-28.309-43.786Z" transform="translate(-731.074 -115.167)"/><ellipse class="c" cx="107.74" cy="8.028" rx="107.74" ry="8.028" transform="translate(36.777 359.132)"/><rect class="c" width="16.9" height="370.117" transform="translate(134.799)"/><path class="c" d="M948.8,775.224c0,10.635,6.322,14.349,14.122,14.349q.271,0,.541-.006c.361-.008.719-.025,1.073-.049,7.039-.5,12.507-4.4,12.507-14.293,0-10.236-13.081-23.152-14.063-24.108l0,0-.057-.055S948.8,764.589,948.8,775.224Z" transform="translate(-902.638 -420.919)"/><path class="d" d="M971.725,787.945l-5.165-7.217,5.178,8.009.014.829c.361-.008.719-.025,1.073-.049l-.557-10.64,0-.083-.009-.016-.053-1,5.191-8.029-5.207,7.275-.012.213-.421-8.04,4.444-8.3-4.5,6.886-.438-16.667,0-.057v.055l.073,13.143-4.424-5.21,4.442,6.343.117,7.2-4.131-6.908,4.148,7.967.065,4-6-9.615,6.019,11.011Z" transform="translate(-910.926 -420.919)"/><path class="e" d="M762.527,782.793l3.021-2.244s2,11.169-.232,12.842-10.6,4.462-10.6,7.809-18.965,7.809-19.523,2.789,1.674-7.809,1.674-7.809,8.925-8.925,10.04-10.6,3.9-5.02,3.9-5.02Z" transform="translate(-590.814 -436.451)"/><path class="e" d="M734.016,485.026s.084.491.229,1.389c.134.8.318,1.924.541,3.313,2.343,14.3,9.176,56.383,8.713,57.772-.558,1.673-4.463,7.809,0,9.483a3.461,3.461,0,0,1,1.389,1.512,32.416,32.416,0,0,1,2.359,5.567c2.661,7.72,5.506,20.075,7.151,28.632.72,3.76,1.21,6.783,1.355,8.367a4.544,4.544,0,0,1,.017,1.1c-.558,2.231,3.347,10.04,5.02,12.272s4.462,4.462,3.9,6.694,13.945,8.367,15.619,4.462,1.673-6.136,2.231-7.252,1.115-8.925-1.673-10.04-1.116-20.639-3.9-24.543c-.931-1.3-2.354-5.7-3.843-10.994-.586-2.075-1.177-4.284-1.757-6.5-2.354-9.076-4.44-18.207-4.44-18.207l.558-65.263-30.679-3.9-.786,1.735-1.568,3.442Z" transform="translate(-606.928 -277.577)"/><path class="e" d="M848.966,715.911s-4.462-4.463-6.694,0-4.462,21.754-8.367,25.659-8.925,23.428-3.347,24.543,11.714-1.674,12.271-5.02S855.1,740.454,855.1,738.781s-7.809-7.809-7.809-7.809Z" transform="translate(-723.552 -401.364)"/><path class="e" d="M768.754,425.333s-7.251,65.263-8.925,71.4-10.6,29.564-13.387,33.468-20.639,35.7-22.87,37.373-6.694,6.136-6.694,6.136-8.367,8.367-9.483,10.04-10.6-3.347-11.156-6.694.558-8.925,1.116-11.156-1.116-5.578.558-7.251,10.041-10.04,10.041-13.945,14.5-26.775,20.081-31.795,4.462-13.387,4.462-13.387V465.5l-30.679-9.483s1.673-26.775,5.578-26.775S762.619,420.313,768.754,425.333Z" transform="translate(-574.73 -248.563)"/><circle class="f" cx="18.408" cy="18.408" r="18.408" transform="translate(130.435 46.802)"/><path class="f" d="M791.484,211.418s2.231,8.367,5.02,10.6-7.251,11.714-7.251,11.714l-18.965,1.116-3.347-10.6s6.136-12.272,4.462-20.081S791.484,211.418,791.484,211.418Z" transform="translate(-636.506 -131.706)"/><path class="c" d="M735.135,242.02s-5.02.558-6.136,2.231-8.925,6.694-15.061,5.578S703.9,247.04,702.782,247.6s-3.347,12.272-3.347,12.272l6.136,17.849-1.116,49.087-1.673,13.387s-3.347-4.462,10.041-1.673,30.679-2.231,36.257-2.789,15.061-2.231,15.619-5.578-1.673-15.618-1.673-15.618L754.1,277.162l-5.578-20.081Z" transform="translate(-572.347 -152.825)"/><path class="g" d="M676.094,235.369s4.718-2.5,6.392-.271,22.87,5.578,22.87,7.251,4.462,46.856,3.347,50.76,2.231,8.367,2.231,8.367l3.9,16.734s10.6,31.795,6.136,32.91-8.367,0-10.04,0-1.116-21.2-5.578-26.775-10.6-19.523-11.714-22.312-15.061-41.277-14.5-45.74S676.094,235.369,676.094,235.369Z" transform="translate(-518.583 -148.691)"/><path class="g" d="M820.4,242.02s-4.462,0-5.02,1.116-6.136,8.367-8.367,10.04-10.04,8.925-10.04,10.6,16.176,13.945,16.176,13.945,6.694,32.91,3.347,44.067-8.367,37.931-6.136,39.6,7.252,2.231,7.252,0,3.347-26.217,6.136-31.237,11.156-36.815,7.809-45.74S820.4,242.02,820.4,242.02Z" transform="translate(-686.059 -152.825)"/><path class="f" d="M706.2,358.687s.558,17.292-5.578,26.217a106,106,0,0,0-10.041,18.965s-10.04-2.789-11.714-6.136-12.272-.558-12.272-1.673,12.829-6.693,13.945-7.809,5.02-1.116,7.251-3.347,2.789-7.251,2.789-7.251l2.231-14.5Z" transform="translate(-498.234 -214.27)"/><path class="h" d="M787.379,148.213a10.608,10.608,0,0,0,4.128-.945,5.527,5.527,0,0,0,1.413-8.184,10.58,10.58,0,0,0-1.961-1.577l-4.24-2.886a20.738,20.738,0,0,0-5.982-3.175,18.674,18.674,0,0,0-6.115-.361,41.322,41.322,0,0,0-11.714,2.13,19.605,19.605,0,0,0-9.491,6.945c-3.59,5.194-3.639,12.2-1.662,18.2s5.733,11.219,9.434,16.335l1.92-9.37a3.458,3.458,0,0,1,1.086-2.243c1.725-1.228,3.835,1.293,5.952,1.277a3.565,3.565,0,0,0,3.018-2.388,13.61,13.61,0,0,0,.669-4.008c.253-2.87,1.256-6.864,3.974-8.447C780.341,148.036,784.532,148.472,787.379,148.213Z" transform="translate(-625.859 -94.354)"/><path class="i" d="M770.435,492.613s-1.884,54.493-3,56.167,0-56.338,0-56.338Z" transform="translate(-609.947 -284.714)"/><path class="g" d="M657.716,251.447h4.462s18.965,25.659,16.734,27.332,0,6.136,0,6.136l4.462,8.367s5.578,5.02,3.9,6.136-3.9,5.578-3.9,5.578-11.156-1.673-14.5,5.02l-7.235-9.133Z" transform="translate(-475.405 -157.79)"/><path class="f" d="M691.04,318.839s12.272.558,26.217-8.367l13.945-6.136s12.272-18.965,13.387-15.618-1.674,10.04-1.674,10.04,16.83,7.788,17.267,8.818-9.458-1.567-9.458-1.567,1.673,10.6-7.809,11.156-12.272-1.673-12.272-1.673-40.162,33.468-46.856,22.87S691.04,318.839,691.04,318.839Z" transform="translate(-559.489 -177.21)"/><path class="g" d="M830.4,283.266l-6.136,2.231v16.734l-2.231,3.347s.558,6.694,2.231,8.367,5.02,1.116,3.9,5.02a21.133,21.133,0,0,0-.558,7.809s10.04,12.829,10.6,11.156,8.367-22.312,9.483-22.312-11.156-32.353-11.156-32.353Z" transform="translate(-713.352 -174.548)"/><path class="h" d="M707.808,451.006s5.768-5.578,2.884-5.857-12.924-5.857-14.6-3.068S707.808,451.006,707.808,451.006Z" transform="translate(-517.409 -257.781)"/><g transform="translate(230.349 93.707)"><path class="b" d="M193.916,249.137l56.766,47.077A25.708,25.708,0,1,0,290.217,329l50.894,42.206L259.529,469.58l-147.2-122.07Z" transform="translate(-112.334 -243.201)"/><path class="c" d="M109.28,626.3a107.92,107.92,0,1,1,185.278,0Z" transform="translate(-81.233 -367.044)"/><circle class="d" cx="10.14" cy="10.14" r="10.14" transform="translate(110.634 186.839)"/><ellipse class="d" cx="5.493" cy="5.07" rx="5.493" ry="5.07" transform="translate(197.67 208.809)"/><circle class="d" cx="5.207" cy="5.207" r="5.207" transform="translate(195.258 163.513)"/><circle class="d" cx="5.207" cy="5.207" r="5.207" transform="translate(169.413 126.431)"/><circle class="d" cx="5.207" cy="5.207" r="5.207" transform="translate(128.161 107.958)"/><circle class="d" cx="5.207" cy="5.207" r="5.207" transform="translate(83.287 113.368)"/><circle class="d" cx="5.207" cy="5.207" r="5.207" transform="translate(47.608 141.119)"/><circle class="d" cx="5.207" cy="5.207" r="5.207" transform="translate(31.319 183.281)"/><circle class="d" cx="5.207" cy="5.207" r="5.207" transform="translate(39.071 227.811)"/><path class="j" d="M54.272,40.114,39.432,29.146,0,0" transform="translate(66.969 156.418)"/><circle class="k" cx="6.984" cy="6.984" r="6.984" transform="translate(73.068)"/><circle class="c" cx="6.984" cy="6.984" r="6.984" transform="translate(33.308 81.413)"/><circle class="b" cx="20.248" cy="20.248" r="20.248" transform="translate(137.582 49.602)"/></g></g></g></svg>