<svg xmlns="http://www.w3.org/2000/svg" xmlns:xlink="http://www.w3.org/1999/xlink" width="621.122" height="437.318" viewBox="0 0 621.122 437.318"><defs><style>.a{fill:#0090bf;}.a,.b,.c{opacity:0.1;}.b,.d{fill:green;}.e{fill:#123147;}.f{fill:#3f3d56;}.g{fill:none;stroke:#3f3d56;stroke-linecap:round;stroke-miterlimit:10;stroke-width:7px;}.h{opacity:0.2;}.i{fill:url(#a);}.j{fill:#a0616a;}.k{fill:#2d293d;}</style><linearGradient id="a" x1="0.627" y1="0.5" x2="1.626" y2="0.5" gradientUnits="objectBoundingBox"><stop offset="0" stop-color="gray" stop-opacity="0.251"/><stop offset="0.54" stop-color="gray" stop-opacity="0.122"/><stop offset="1" stop-color="gray" stop-opacity="0.102"/></linearGradient></defs><g transform="translate(-0.003 -0.344)"><ellipse class="a" cx="35.696" cy="9.476" rx="35.696" ry="9.476" transform="translate(502.54 418.71)"/><path class="b" d="M640.318,450.261c-13.581,11.267-32.908,15.93-51.6,18.875l-3.146.48a590.676,590.676,0,0,1-59.066,5.4c-10.6.513-21.195.876-31.792,1.2l-8.3.245q-16.175.48-32.411.943-15.9.452-31.792.848-20.358.5-40.716.826-15.9.251-31.792.346-20.364.117-40.716-.078-15.907-.162-31.792-.558-20.369-.524-40.716-1.534-13.81-.675-27.6-1.623l-4.189-.3c-39.472-2.845-79.653-7.948-114.2-24.078l-.931-.441c-.463-.217-.926-.435-1.389-.664a124.993,124.993,0,0,1-18.161-10.648c-10.213-7.284-18.646-16.175-23.1-26.722-6.983-16.543-3.291-35.139,4.685-51.314S71.54,330.695,81.9,315.462c3.034-4.462,5.912-9.091,8.589-13.838,16.733-29.767,25.032-64.215,7.491-92.9a127.494,127.494,0,0,0-7.491-10.6c-4.278-5.578-8.628-11.155-11.568-17.33-6.855-14.368-5.382-30.526-2.884-45.875,3.347-20.408,9.482-42.389,28.658-55.14,19.9-13.241,48.134-12.572,72.826-7.809,38.39,7.357,73.825,22.756,109.594,36.645s73.239,26.588,112.566,27.955a179.647,179.647,0,0,0,25.311-.92h0a160.527,160.527,0,0,0,32.975-6.944c15.478-5.1,29.561-12.767,40-23.426,22.394-22.784,64.477-24.508,94.819-10.748,28.953,13.13,47.677,40.917,46.294,68.671-1.573,30.894-24.709,56.294-45.909,82.347-2.571,3.157-5.109,6.325-7.58,9.515q-2.069,2.672-4.06,5.354h0c-2.326,3.157-4.574,6.331-6.693,9.543C564.005,286.437,556.347,306.22,563.8,324c4.183,9.956,12.165,17.553,21.786,24.184,21.557,14.853,51.314,24.848,64.7,45.641C661.825,411.748,657.552,435.938,640.318,450.261Z" transform="translate(-43.21 -62.529)"/><g class="c" transform="translate(255.367 0.344)"><path class="d" d="M598.7,594.134q.034.787.117,1.539,6.509-2.594,12.778-5.578a10.358,10.358,0,0,0,5.907-2.889c1.222-.613,2.438-1.255,3.642-1.9a14.988,14.988,0,0,0-.926-1.673c-2.348-3.709-5.918-6.029-9.85-5.9s-7.335,2.677-9.437,6.52a19.221,19.221,0,0,0-2.231,9.878Z" transform="translate(-544.227 -287.922)"/><path class="d" d="M597.546,559.177a19.283,19.283,0,0,0,2.872,9.66c2.354,3.7,5.923,6.018,9.856,5.89.273,0,.558-.039.809-.061a10.357,10.357,0,0,0,5.907-2.889,14.209,14.209,0,0,0,2.716-3.558,19.979,19.979,0,0,0-.636-19.522c-2.354-3.709-5.923-6.029-9.856-5.9s-7.329,2.677-9.432,6.52a19.227,19.227,0,0,0-2.237,9.861Z" transform="translate(-543.719 -272.47)"/><ellipse class="d" cx="12.198" cy="15.969" rx="12.198" ry="15.969" transform="matrix(0.999, -0.033, 0.033, 0.999, 52.673, 251.232)"/><ellipse class="d" cx="12.198" cy="15.969" rx="12.198" ry="15.969" transform="matrix(0.999, -0.033, 0.033, 0.999, 52.033, 231.731)"/><ellipse class="d" cx="12.198" cy="15.969" rx="12.198" ry="15.969" transform="matrix(0.999, -0.033, 0.033, 0.999, 51.394, 212.224)"/><path class="d" d="M606.44,150.959a58.047,58.047,0,0,0,4.317-6.833l-32.2-4.205,34.648-.881a58.5,58.5,0,0,0-.4-46.294l-45.686,25.629,41.832-32.908a58.425,58.425,0,1,0-94.322,68.526,58.655,58.655,0,0,0-6.308,10.865L550.6,185.094l-44.821-13.42A58.453,58.453,0,0,0,516.992,226.2a58.419,58.419,0,1,0,91.784-3.04,58.436,58.436,0,0,0-2.337-72.2Z" transform="translate(-501.054 -58.134)"/><path class="b" d="M505.1,294.665a58.152,58.152,0,0,0,13.682,35.7,58.419,58.419,0,1,0,91.784-3.023C618.068,317.153,504.888,288.111,505.1,294.665Z" transform="translate(-502.843 -162.317)"/></g><g class="c" transform="translate(134.178 191.274)"><path class="d" d="M356.72,782.14a9.556,9.556,0,0,1-.084,1.116q-4.629-1.841-9.1-3.943a7.369,7.369,0,0,1-4.206-2.047q-1.305-.664-2.594-1.35a10.537,10.537,0,0,1,.658-1.182c1.673-2.644,4.206-4.295,7.005-4.206a8.076,8.076,0,0,1,6.693,4.629A13.664,13.664,0,0,1,356.72,782.14Z" transform="translate(-308.967 -564.113)"/><path class="d" d="M356.428,757.232a13.715,13.715,0,0,1-2.03,6.877c-1.673,2.633-4.211,4.289-7.005,4.2l-.558-.045a7.367,7.367,0,0,1-4.206-2.047,10.041,10.041,0,0,1-1.935-2.532,14.239,14.239,0,0,1,.435-13.883c1.673-2.644,4.211-4.295,7.005-4.206s5.221,1.9,6.721,4.629A13.665,13.665,0,0,1,356.428,757.232Z" transform="translate(-308.24 -553.088)"/><ellipse class="d" cx="11.362" cy="8.679" rx="11.362" ry="8.679" transform="translate(30.931 201.097) rotate(-88.19)"/><ellipse class="d" cx="11.362" cy="8.679" rx="11.362" ry="8.679" transform="translate(31.365 187.216) rotate(-88.19)"/><ellipse class="d" cx="11.362" cy="8.679" rx="11.362" ry="8.679" transform="translate(31.804 173.331) rotate(-88.19)"/><path class="d" d="M295.122,466.667a42.3,42.3,0,0,1-3.084-4.858l22.913-3.045-24.658-.558a41.63,41.63,0,0,1,.245-32.952l32.534,18.2-29.8-23.4a41.575,41.575,0,1,1,67.165,48.67,41.512,41.512,0,0,1,4.5,7.73l-30.074,14.435,31.887-9.593a41.636,41.636,0,0,1-7.931,38.82,41.575,41.575,0,1,1-65.324-2.064,41.575,41.575,0,0,1,1.623-51.381Z" transform="translate(-283.775 -400.451)"/><path class="b" d="M368.523,568.894a41.424,41.424,0,0,1-9.7,25.417,41.575,41.575,0,1,1-65.324-2.064C288.15,585,368.679,564.225,368.523,568.894Z" transform="translate(-283.775 -474.645)"/></g><g class="c" transform="translate(424.649 118.668)"><path class="d" d="M877.49,652.09a10.808,10.808,0,0,1-.078,1.116q-4.635-1.841-9.1-3.943a7.4,7.4,0,0,1-4.211-2.047c-.865-.441-1.735-.892-2.594-1.35a11.5,11.5,0,0,1,.658-1.182c1.673-2.644,4.205-4.295,7.005-4.206a8.076,8.076,0,0,1,6.693,4.629A13.666,13.666,0,0,1,877.49,652.09Z" transform="translate(-829.745 -433.994)"/><path class="d" d="M877.249,627.182a13.716,13.716,0,0,1-2.036,6.877c-1.673,2.633-4.206,4.289-7.005,4.2l-.558-.045a7.4,7.4,0,0,1-4.211-2.047,10.216,10.216,0,0,1-1.935-2.532,14.24,14.24,0,0,1,.435-13.883c1.673-2.638,4.211-4.295,7.005-4.206s5.226,1.9,6.721,4.629A13.664,13.664,0,0,1,877.249,627.182Z" transform="translate(-829.037 -422.969)"/><ellipse class="d" cx="11.362" cy="8.679" rx="11.362" ry="8.679" transform="translate(30.943 201.161) rotate(-88.19)"/><ellipse class="d" cx="11.362" cy="8.679" rx="11.362" ry="8.679" transform="translate(31.382 187.281) rotate(-88.19)"/><ellipse class="d" cx="11.362" cy="8.679" rx="11.362" ry="8.679" transform="translate(31.821 173.401) rotate(-88.19)"/><path class="d" d="M815.9,336.563a41.043,41.043,0,0,1-3.079-4.858l22.913-3.018-24.658-.6a41.664,41.664,0,0,1,.24-32.952l32.534,18.2-29.8-23.387a41.581,41.581,0,1,1,67.165,48.67,41.5,41.5,0,0,1,4.5,7.73l-30.074,14.435,31.887-9.593a41.592,41.592,0,0,1-7.931,38.814,41.57,41.57,0,1,1-65.308-2.064,41.575,41.575,0,0,1,1.623-51.38Z" transform="translate(-804.559 -270.277)"/><path class="b" d="M889.307,438.843a41.384,41.384,0,0,1-9.7,25.411,41.57,41.57,0,1,1-65.313-2.064C808.935,454.945,889.453,434.169,889.307,438.843Z" transform="translate(-804.562 -344.525)"/></g><ellipse class="d" cx="31.798" cy="6.113" rx="31.798" ry="6.113" transform="translate(76.129 412.853)"/><ellipse class="e" cx="3.704" cy="4.847" rx="3.704" ry="4.847" transform="translate(103.694 411.52)"/><ellipse class="e" cx="3.704" cy="4.847" rx="3.704" ry="4.847" transform="translate(103.694 405.597)"/><ellipse class="e" cx="3.704" cy="4.847" rx="3.704" ry="4.847" transform="translate(103.694 399.673)"/><ellipse class="e" cx="3.704" cy="4.847" rx="3.704" ry="4.847" transform="translate(103.694 393.75)"/><ellipse class="e" cx="3.704" cy="4.847" rx="3.704" ry="4.847" transform="translate(103.694 387.827)"/><ellipse class="e" cx="3.704" cy="4.847" rx="3.704" ry="4.847" transform="translate(103.694 381.903)"/><ellipse class="f" cx="3.704" cy="4.847" rx="3.704" ry="4.847" transform="translate(103.694 375.98)"/><path class="d" d="M235.495,644.856a18.024,18.024,0,0,0,1.378-2.03l-9.727-1.6,10.519.084a17.787,17.787,0,0,0,.34-14.056l-14.117,7.323,13.018-9.588a17.737,17.737,0,1,0-29.293,19.851,17.85,17.85,0,0,0-2.019,3.235l12.628,6.559-13.464-4.518a17.748,17.748,0,0,0,2.856,16.655,17.737,17.737,0,1,0,27.888,0,17.748,17.748,0,0,0,0-21.931Z" transform="translate(-114.237 -304.567)"/><path class="b" d="M203.82,687.073a17.664,17.664,0,0,0,3.793,10.966,17.737,17.737,0,1,0,27.888,0C237.871,695.021,203.82,685.082,203.82,687.073Z" transform="translate(-114.237 -335.818)"/><path class="e" d="M364.5,571.1V697.152q-13.81-.675-27.6-1.623l-4.189-.3V571.1a4.919,4.919,0,0,1,4.919-4.919h21.953A4.919,4.919,0,0,1,364.5,571.1Z" transform="translate(-171.238 -282.47)"/><path class="e" d="M462.71,631.941V420.1a4.919,4.919,0,0,1,4.919-4.919h21.953A4.919,4.919,0,0,1,494.5,420.1V632.493Z" transform="translate(-228.73 -215.691)"/><path class="e" d="M592.71,667.542V499.1a4.919,4.919,0,0,1,4.919-4.919h21.953A4.919,4.919,0,0,1,624.5,499.1v168.08Z" transform="translate(-286.221 -250.628)"/><path class="e" d="M754.5,275.1V566.443q-15.9.452-31.792.848V275.1a4.919,4.919,0,0,1,4.919-4.919h21.953A4.919,4.919,0,0,1,754.5,275.1Z" transform="translate(-343.713 -151.566)"/><path class="e" d="M884.5,380.1V610.453c-10.6.513-21.195.876-31.792,1.2V380.1a4.919,4.919,0,0,1,4.919-4.919h21.953A4.919,4.919,0,0,1,884.5,380.1Z" transform="translate(-401.205 -198.001)"/><path class="g" d="M318.5,254.506l72.508-80.875,72.508,40.716L536.025,89.41l72.508,59.68" transform="translate(-140.853 -39.389)"/><circle class="d" cx="15.617" cy="15.617" r="15.617" transform="translate(161.751 199.5)"/><circle class="d" cx="15.617" cy="15.617" r="15.617" transform="translate(234.259 118.625)"/><circle class="d" cx="15.617" cy="15.617" r="15.617" transform="translate(306.767 159.342)"/><circle class="d" cx="15.617" cy="15.617" r="15.617" transform="translate(379.276 34.404)"/><circle class="d" cx="15.617" cy="15.617" r="15.617" transform="translate(518.715 167.15)"/><ellipse class="a" cx="10.419" cy="1.763" rx="10.419" ry="1.763" transform="translate(119.919 401.43)"/><path class="d" d="M264.35,763.185s5.94-.184,7.731-1.461,9.142-2.789,9.588-.753,8.924,10.173,2.231,10.229-15.589-1.049-17.374-2.136S264.35,763.185,264.35,763.185Z" transform="translate(-141.006 -368.174)"/><path class="h" d="M284.005,773.026c-6.693.056-15.584-1.043-17.374-2.131-1.361-.831-1.9-3.8-2.086-5.176h-.2s.374,4.791,2.164,5.879,10.664,2.192,17.374,2.136c1.935,0,2.6-.7,2.566-1.723C286.186,772.63,285.45,773.015,284.005,773.026Z" transform="translate(-141.006 -370.715)"/><ellipse class="a" cx="19.137" cy="3.235" rx="19.137" ry="3.235" transform="translate(574.206 414.906)"/><path class="d" d="M1084,775.575s10.915-.335,14.206-2.677,16.788-5.137,17.6-1.383,16.409,18.685,4.083,18.785-28.635-1.919-31.921-3.9S1084,775.575,1084,775.575Z" transform="translate(-503.491 -372.466)"/><path class="h" d="M1120.085,793.7c-12.326.1-28.635-1.919-31.92-3.9-2.5-1.523-3.5-6.989-3.832-9.482h-.363s.692,8.807,3.971,10.8,19.6,4.022,31.921,3.9c3.558,0,4.786-1.294,4.719-3.168C1124.084,792.965,1122.729,793.674,1120.085,793.7Z" transform="translate(-503.478 -377.167)"/><path class="i" d="M892.74,394.613a5.018,5.018,0,0,0,1.115,2.66,9.651,9.651,0,0,0,3.107,1.88,12.271,12.271,0,0,1,6,6.9c1.857,5.421,2.1,11.155,4.462,16.387s5.142,10.257,7.184,15.617c1.16,3.04,2.086,6.2,3.787,8.969A13.911,13.911,0,0,0,921.5,450.6c-.128,1.963-.178,3.9-.167,5.868a2.231,2.231,0,0,1,1.907,1,5.806,5.806,0,0,1,.837,2.092c.764,3.162-.178,6.531.508,9.711a49.4,49.4,0,0,1-1.673,26.571c-.764,2.164-1.723,9.326-.909,11.473,3.034-.307,5.723,1.556,8.562,2.789a11.777,11.777,0,0,1-.4,5.02c-1.021,2.939-1.015,6.135-1,9.242l.139,23.013a34.7,34.7,0,0,0,.77,8.7c.831,3.185,2.577,6.431,2.521,9.722-.151,7.083,3.2,13.832,2.928,20.86-.05,1.35-.234,2.688-.362,4.027a45.809,45.809,0,0,0,.268,10.7c1.015,7.061,3.7,14.005,3.029,21.106-.045.48-.206,1.116-.658,1.3.558.63,1.149,1.255,1.751,1.852a1.588,1.588,0,0,1-.485.508,4.93,4.93,0,0,1-2.131.558,4.513,4.513,0,0,0-2.437.792,3.508,3.508,0,0,0-1.015,1.863,5.02,5.02,0,0,0,.669,4.172,4.657,4.657,0,0,0,1.891,1.417c2.577,1.116,5.533.307,8.221-.508l10.531-3.19a3.546,3.546,0,0,0,1.712-.892,1.874,1.874,0,0,0,.418-.9c2.326.558,4.88-.128,7.251-.837l10.531-3.2a3.5,3.5,0,0,0,1.712-.893,2.042,2.042,0,0,0,.43-1.673c.078-.033.156-.056.234-.095.8-.363,1.673-1.071,1.478-1.924-.139-.558-.7-.881-.937-1.394a2.014,2.014,0,0,1,.391-1.969c.413-.558.97-1.021,1.35-1.606,1.216-1.863.39-4.311-.067-6.492-.987-4.657-.072-9.521-.7-14.24-.212-1.59-.6-3.151-.9-4.73a96.65,96.65,0,0,1-1.288-11.278c-.4-5.4-1.9-10.72-1.043-16.075a62.394,62.394,0,0,0,.53-9.482,41.241,41.241,0,0,0-.262-6.046c-.217-1.495-.6-2.962-.77-4.462a40.435,40.435,0,0,1-.089-5.07,50.141,50.141,0,0,0-1.037-11.222c-1.116-5.07-3.213-9.922-4.105-15,.3.067.6.134.892.212.034-3.9-3.385-12.393-4.652-16.1a4.691,4.691,0,0,1-.335-1.422,15.358,15.358,0,0,1,.352-1.913c.162-1.35-.558-2.633-.753-3.982a9.335,9.335,0,0,1,.206-2.833c.9-4.992,2.013-9.945,3.129-14.892a15.864,15.864,0,0,0,.5-5.505,6.91,6.91,0,0,1,1.673-5.483,6.5,6.5,0,0,0,1.238-1.556,3.948,3.948,0,0,0,.245-1.556,25,25,0,0,0-1-6.777,17.539,17.539,0,0,0,1.629-6.029,97.919,97.919,0,0,0,1.227-13.738,23.285,23.285,0,0,0-1-7.251,28.784,28.784,0,0,0-1.908-4.205c-2.934-5.65-5.739-11.6-9.443-16.772-1.116-1.573-.413-3.742-.335-5.684a16.231,16.231,0,0,0-1.751-6.743,11.066,11.066,0,0,0-2.1-3.609,3.408,3.408,0,0,0-2.454-1.115,3.7,3.7,0,0,0-2.616,1.6,8.628,8.628,0,0,0-1.567,6.453,12.476,12.476,0,0,0,2.839,6.1,13.813,13.813,0,0,0,2.449,2.326q1.383,4.4,2.789,8.785a109.618,109.618,0,0,0,5.02,13.743,10.842,10.842,0,0,1,1.35,3.988,11.716,11.716,0,0,1-1.065,4.406,31.1,31.1,0,0,0-1.8,9.292,3.191,3.191,0,0,0-.468.257c-1.757,1.149-2.309,3.653-4.139,4.68a12.955,12.955,0,0,1-3.553.831,1.221,1.221,0,0,0-.323.089c-.045-.223-.089-.441-.117-.669a1.8,1.8,0,0,1,0-.429,18.734,18.734,0,0,0,6.933-6.6,6.042,6.042,0,0,0,.82-1.673,6.468,6.468,0,0,0,.084-2.175,34.722,34.722,0,0,0-1.032-7.167,11.918,11.918,0,0,0-3.731-6.074c-.915-.736-1.969-1.288-2.878-2.03-1.774-1.433-2.99-3.553-5.02-4.618a6.04,6.04,0,0,0-7.591,1.963,4.4,4.4,0,0,1-1.115,1.417,11.444,11.444,0,0,0-1.037.558,2.124,2.124,0,0,0-.446,2.2,22.883,22.883,0,0,1,.636,4.791,11.713,11.713,0,0,0-.034,15.154c0,1.037,0,2.075-.039,3.112a3.015,3.015,0,0,1-.039.591,4.023,4.023,0,0,1-1.673-1.116c-.625-.781-.736-1.93-1.5-2.571a4.234,4.234,0,0,0-1.829-.669,11.36,11.36,0,0,1-4.462-2.114c-1.032-.8-2.1-1.818-3.308-2.053a73.376,73.376,0,0,0-7.251-11.066,21.576,21.576,0,0,1-1.9-2.6c-1.2-2.092-1.556-4.551-2.315-6.844-2.12-6.425-7.407-11.579-8.7-18.228-.468-2.41-2-4.507-3.045-6.727a8.59,8.59,0,0,0-2.906-3.943,4.947,4.947,0,0,0-5.862.9A7.044,7.044,0,0,0,892.74,394.613Zm66.222,225.718a4.929,4.929,0,0,1-2.13.558,10.307,10.307,0,0,0-1.116.179c-.139-1.171-.218-2.359-.307-3.514-.3-3.787-.887-7.546-1.472-11.3-.614-3.9-.9-8.177-2.231-11.925-2.136-6.1-4.3-12.388-4.027-18.852.061-1.467.245-2.923.323-4.384.179-3.62-.329-7.318.558-10.837.4-1.6,1.071-3.129,1.327-4.758a22.572,22.572,0,0,0,.056-4.429,58.865,58.865,0,0,1,1.266-15.255,10.766,10.766,0,0,1,1.673,4.786l2.092,11.345c1.244,6.732,2.343,13.871,5.639,19.862-.463,2.159-.92,4.462-.156,6.526.329.892.87,1.673,1.2,2.577a19.207,19.207,0,0,1,.647,4.741c.363,3.347,1.746,6.637.731,9.867a48.152,48.152,0,0,0-2.025,10.24,24.934,24.934,0,0,1-.335,2.884c-.178.859-.469,1.673-.63,2.555a8.463,8.463,0,0,0,.162,3.72,7.6,7.6,0,0,1,.457,2.092c0,.714-.876,1.227-1.578,1.339.206.268.43.524.658.775A2.442,2.442,0,0,1,958.962,620.332Z" transform="translate(-418.868 -202.269)"/><path class="f" d="M969.163,816.276a4.511,4.511,0,0,0-2.437.792,3.435,3.435,0,0,0-1.015,1.852,4.953,4.953,0,0,0,.669,4.138,4.647,4.647,0,0,0,1.891,1.411c2.577,1.115,5.533.3,8.221-.508l10.53-3.168a3.535,3.535,0,0,0,1.712-.887,2.326,2.326,0,0,0,.045-2.711,5.264,5.264,0,0,0-2.231-1.779,24.984,24.984,0,0,0-10.564-2.025c-1.339,0-2.661-.324-3.57.708-.48.558-.391,1.155-1.116,1.629A5.018,5.018,0,0,1,969.163,816.276Z" transform="translate(-451.095 -391.777)"/><path class="f" d="M1004.833,805.9a4.558,4.558,0,0,0-2.437.792,3.459,3.459,0,0,0-1.015,1.852,4.97,4.97,0,0,0,.669,4.144,4.685,4.685,0,0,0,1.891,1.406c2.582,1.115,5.533.307,8.221-.5l10.531-3.174a3.536,3.536,0,0,0,1.712-.887,2.32,2.32,0,0,0,.045-2.705,5.283,5.283,0,0,0-2.231-1.779,25.032,25.032,0,0,0-10.57-2.03c-1.339,0-2.655-.318-3.57.714-.48.558-.391,1.149-1.116,1.623A4.852,4.852,0,0,1,1004.833,805.9Z" transform="translate(-466.87 -387.187)"/><path class="e" d="M976.592,601.732a129.716,129.716,0,0,1,18.679-.524,3.714,3.714,0,0,1,1.21.19c1.372.558,1.584,2.354,1.712,3.821.558,5.957,3.157,11.507,4.462,17.341a49.538,49.538,0,0,1,1.037,11.155,40.029,40.029,0,0,0,.089,5.02c.167,1.489.558,2.951.77,4.434a40.726,40.726,0,0,1,.262,6.007,61.626,61.626,0,0,1-.53,9.409c-.859,5.315.642,10.6,1.043,15.974a95.3,95.3,0,0,0,1.266,11.216c.307,1.567.692,3.118.9,4.7.625,4.691-.29,9.521.7,14.15.458,2.164,1.283,4.6.067,6.448-.379.558-.937,1.032-1.35,1.6a1.991,1.991,0,0,0-.39,1.958c.24.508.8.842.937,1.383.218.853-.675,1.551-1.478,1.913a15.4,15.4,0,0,1-17.938-4.429c.7-.112,1.562-.619,1.579-1.333a7.525,7.525,0,0,0-.457-2.075A8.366,8.366,0,0,1,989,706.39c.162-.859.452-1.673.63-2.538a24.662,24.662,0,0,0,.335-2.867,47.522,47.522,0,0,1,2.025-10.173c1.015-3.207-.368-6.453-.731-9.8a19.24,19.24,0,0,0-.647-4.713c-.335-.881-.876-1.673-1.2-2.555-.764-2.058-.307-4.345.156-6.487-3.3-5.951-4.4-13.046-5.639-19.733l-2.091-11.267a11.078,11.078,0,0,0-1.673-4.758,58.1,58.1,0,0,0-1.266,15.154,22.313,22.313,0,0,1-.056,4.4c-.257,1.617-.932,3.14-1.328,4.724-.865,3.5-.357,7.167-.558,10.765-.078,1.456-.262,2.9-.323,4.356-.273,6.425,1.891,12.672,4.027,18.735,1.311,3.72,1.6,7.948,2.231,11.841.558,3.731,1.177,7.463,1.472,11.228.273,3.458.4,7.2,2.549,9.917a18.27,18.27,0,0,1-6.3,3.017,11.635,11.635,0,0,1-7.764-1.506,24.427,24.427,0,0,1-6.135-5.215c.452-.156.614-.814.658-1.288.669-7.061-2.013-13.944-3.029-20.972a45.178,45.178,0,0,1-.268-10.631c.128-1.333.312-2.666.363-4,.268-6.978-3.1-13.7-2.973-20.682.056-3.274-1.673-6.5-2.521-9.66a34.954,34.954,0,0,1-.77-8.645l-.14-22.868c0-3.09,0-6.258,1-9.175,1.227-3.514-.178-7.547-.391-11.261A46.417,46.417,0,0,0,976.592,601.732Z" transform="translate(-447.782 -297.307)"/><path class="j" d="M927.793,444.153a72.867,72.867,0,0,0-8.539-13.481,21.386,21.386,0,0,1-1.9-2.588c-1.2-2.08-1.556-4.523-2.315-6.8-2.12-6.381-7.407-11.507-8.7-18.1-.469-2.4-2-4.462-3.045-6.693a8.449,8.449,0,0,0-2.906-3.9,4.954,4.954,0,0,0-5.862.892,6.966,6.966,0,0,0-1.8,5.884A4.98,4.98,0,0,0,893.854,402a9.724,9.724,0,0,0,3.107,1.869,12.2,12.2,0,0,1,6,6.855c1.857,5.382,2.1,11.083,4.462,16.281s5.142,10.185,7.184,15.5c1.16,3.018,2.086,6.135,3.787,8.924s4.356,5.126,7.563,5.544a18.66,18.66,0,0,1,.909-5.957C927.565,448.821,928.8,446.233,927.793,444.153Z" transform="translate(-418.867 -205.431)"/><path class="j" d="M1008.314,446.472a30.818,30.818,0,0,1,1.813-11.59,12.011,12.011,0,0,0,1.065-4.378,10.736,10.736,0,0,0-1.35-3.966,101.718,101.718,0,0,1-5.02-13.648l-2.789-8.729a13.562,13.562,0,0,1-2.449-2.315,12.327,12.327,0,0,1-2.839-6.057,8.506,8.506,0,0,1,1.567-6.4,3.709,3.709,0,0,1,2.616-1.6,3.424,3.424,0,0,1,2.454,1.116,10.991,10.991,0,0,1,2.1,3.581c.909,2.142,1.835,4.373,1.751,6.693-.078,1.93-.8,4.083.335,5.65,3.7,5.143,6.509,11.049,9.443,16.666a28.2,28.2,0,0,1,1.907,4.178,22.962,22.962,0,0,1,1,7.217,100.17,100.17,0,0,1-1.227,13.648c-.4,2.839-.915,5.929-3.062,7.809A44.2,44.2,0,0,0,1008.314,446.472Z" transform="translate(-464.857 -203.578)"/><circle class="j" cx="11.573" cy="11.573" r="11.573" transform="translate(517.694 221.922)"/><path class="j" d="M985.3,492.135a15.481,15.481,0,0,0,2.493,5.773c.658,1.115,1.5,2.3,2.789,2.426a56.218,56.218,0,0,1-10.514,4.228,11.9,11.9,0,0,1-3.837.619,9.388,9.388,0,0,1-3.2-.82A15.89,15.89,0,0,1,964,493.808a20.974,20.974,0,0,0,4.3-.329,3.163,3.163,0,0,0,2.108-1.037,3.347,3.347,0,0,0,.435-1.863c.056-1.93.061-3.865,0-5.8a22.869,22.869,0,0,1,8.411,1.037c1.115.363,2.231.8,3.347,1.082.7.178,2.638,0,3.157.407C986.612,487.884,985.1,490.712,985.3,492.135Z" transform="translate(-450.422 -246.452)"/><path class="d" d="M971.345,497.46a7.284,7.284,0,0,1,5.544-6.476,12.949,12.949,0,0,0,3.553-.826c1.83-1.021,2.382-3.508,4.139-4.652s4.25-.508,5.778.937a12.407,12.407,0,0,1,2.928,5.516,27.923,27.923,0,0,1,1.5,8.45,3.908,3.908,0,0,1-.245,1.545A6.449,6.449,0,0,1,993.3,503.5a6.838,6.838,0,0,0-1.673,5.449,15.622,15.622,0,0,1-.5,5.466c-1.115,4.919-2.231,9.833-3.129,14.8A9.187,9.187,0,0,0,987.8,532c.173,1.344.915,2.616.753,3.96a15,15,0,0,0-.351,1.9,4.616,4.616,0,0,0,.335,1.411c1.266,3.676,4.685,12.1,4.652,15.991-5.94-1.523-14.7-1.863-20.832-1.891a46.348,46.348,0,0,0-5.053.223c-4.033.435-8.16,1.612-12.07.524-3.631-1.009-6.844-3.9-10.6-3.542-.814-2.131.145-9.242.909-11.395a48.77,48.77,0,0,0,1.673-26.4c-.686-3.157.257-6.509-.508-9.644a5.749,5.749,0,0,0-.837-2.08,2.231,2.231,0,0,0-1.908-1,71.053,71.053,0,0,1,1.394-15.02c.368-1.757,1.116-3.832,2.917-4.133,1.6-.273,2.934,1.076,4.217,2.064a11.328,11.328,0,0,0,4.462,2.1,4.234,4.234,0,0,1,1.829.669c.764.636.876,1.779,1.5,2.555,1.116,1.389,3.609,1.272,4.4,2.872a10.951,10.951,0,0,1,.418,1.461,5.366,5.366,0,0,0,1.841,2.376,10.352,10.352,0,0,0,4.4,2.454Z" transform="translate(-441.559 -244.745)"/><path class="k" d="M975.183,448.784a2.115,2.115,0,0,1,.446-2.186c.307-.24.708-.329,1.037-.558a4.464,4.464,0,0,0,1.116-1.411,6.057,6.057,0,0,1,7.58-1.924c2.014,1.054,3.229,3.163,5.02,4.585.909.736,1.963,1.283,2.878,2.019a11.829,11.829,0,0,1,3.731,6.035,34.232,34.232,0,0,1,1.032,7.117,6.407,6.407,0,0,1-.084,2.164,6.06,6.06,0,0,1-.82,1.673,18.635,18.635,0,0,1-7.307,6.76,11.293,11.293,0,0,1-9.738.167,1.672,1.672,0,0,1-.747-.6,2.148,2.148,0,0,1-.117-1.288,8.818,8.818,0,0,0-.97-4.936c-.558-1.116-1.394-2.075-1.841-3.229a11.251,11.251,0,0,1-.524-4C975.824,455.662,976.064,452.164,975.183,448.784Z" transform="translate(-455.319 -227.593)"/></g></svg>