<svg xmlns="http://www.w3.org/2000/svg" width="47.663" height="35.769" viewBox="0 0 47.663 35.769"><defs><style>.a{fill:#fff;}</style></defs><g transform="translate(0 -63.884)"><path class="a" d="M209.72,242.408a4.29,4.29,0,0,0,8.58,0c0-2.369-4.29-13.329-4.29-13.329S209.72,240.039,209.72,242.408Z" transform="translate(-190.197 -149.817)"/><path class="a" d="M271.02,63.884V70.6a17.06,17.06,0,0,1,5.947,1.591l3.361-5.821A23.732,23.732,0,0,0,271.02,63.884Z" transform="translate(-245.79 0)"/><path class="a" d="M424.3,214.173h6.721a23.735,23.735,0,0,0-2.49-9.309l-5.822,3.361A17.062,17.062,0,0,1,424.3,214.173Z" transform="translate(-383.363 -127.857)"/><path class="a" d="M150.3,63.884a23.734,23.734,0,0,0-9.309,2.49l3.361,5.821A17.06,17.06,0,0,1,150.3,70.6Z" transform="translate(-127.862 0)"/><path class="a" d="M8.319,208.226,2.5,204.865a23.732,23.732,0,0,0-2.49,9.309H6.729A17.06,17.06,0,0,1,8.319,208.226Z" transform="translate(-0.007 -127.857)"/><path class="a" d="M417.967,334.9a17.063,17.063,0,0,1-2.239,7.187l5.808,3.353a23.734,23.734,0,0,0,3.154-10.54Z" transform="translate(-377.027 -245.784)"/><path class="a" d="M364.271,105.675,360.91,111.5a17.261,17.261,0,0,1,4.353,4.353l5.822-3.361A24,24,0,0,0,364.271,105.675Z" transform="translate(-327.312 -37.901)"/><path class="a" d="M0,334.9a23.734,23.734,0,0,0,3.154,10.54l5.808-3.353A17.062,17.062,0,0,1,6.723,334.9Z" transform="translate(0 -245.784)"/><path class="a" d="M41.8,112.487l5.821,3.361a17.262,17.262,0,0,1,4.353-4.353l-3.361-5.821a24,24,0,0,0-6.813,6.813Z" transform="translate(-37.907 -37.9)"/></g></svg>