<svg xmlns="http://www.w3.org/2000/svg" width="87.392" height="65.583" viewBox="0 0 87.392 65.583"><defs><style>.a{fill:#fff;}</style></defs><g transform="translate(0 0)"><path class="a" d="M209.72,253.518a7.866,7.866,0,0,0,15.731,0c0-4.344-7.866-24.439-7.866-24.439S209.72,249.174,209.72,253.518Z" transform="translate(-173.923 -200.882)"/><path class="a" d="M271.02,63.884V76.206a31.28,31.28,0,0,1,10.9,2.917l6.162-10.674A43.513,43.513,0,0,0,271.02,63.884Z" transform="translate(-224.76 -63.884)"/><path class="a" d="M425.631,221.932h12.322a43.518,43.518,0,0,0-4.565-17.067l-10.674,6.163A31.286,31.286,0,0,1,425.631,221.932Z" transform="translate(-350.562 -180.801)"/><path class="a" d="M158.054,63.884a43.517,43.517,0,0,0-17.067,4.565l6.163,10.674a31.28,31.28,0,0,1,10.9-2.917Z" transform="translate(-116.922 -63.884)"/><path class="a" d="M15.247,211.028,4.573,204.865A43.513,43.513,0,0,0,.008,221.932H12.33A31.28,31.28,0,0,1,15.247,211.028Z" transform="translate(-0.007 -180.801)"/><path class="a" d="M419.834,334.9a31.285,31.285,0,0,1-4.106,13.177l10.649,6.148A43.516,43.516,0,0,0,432.16,334.9Z" transform="translate(-344.769 -288.639)"/><path class="a" d="M367.073,105.675l-6.163,10.674a31.648,31.648,0,0,1,7.981,7.981l10.674-6.163A44.006,44.006,0,0,0,367.073,105.675Z" transform="translate(-299.307 -98.542)"/><path class="a" d="M0,334.9a43.517,43.517,0,0,0,5.784,19.325l10.649-6.148A31.282,31.282,0,0,1,12.326,334.9Z" transform="translate(0 -288.639)"/><path class="a" d="M41.8,118.166l10.674,6.162a31.651,31.651,0,0,1,7.981-7.981L54.29,105.674A44.008,44.008,0,0,0,41.8,118.166Z" transform="translate(-34.664 -98.541)"/></g></svg>